<?xml version="1.0" encoding="UTF-8"?>
<svg version="1.1" xmlns="http://www.w3.org/2000/svg" width="88" height="98">
  <path fill="#4a8b71" d="M0 0 C0.12445087 5.79826198 0.21473829 11.59573097 0.2746582 17.39501953 C0.29966047 19.36390747 0.333674 21.33270393 0.37719727 23.30126953 C0.8542679 45.44857223 0.8542679 45.44857223 -6.67700195 53.87670898 C-12.1418204 59.11081135 -18.84162922 62.71371509 -25.375 66.4375 C-27.01275391 67.39172852 -27.01275391 67.39172852 -28.68359375 68.36523438 C-36.71851504 73 -36.71851504 73 -39 73 C-39 81.25 -39 89.5 -39 98 C-45.0411176 95.58355296 -50.51894033 92.48887658 -56.1875 89.3125 C-57.27353516 88.71244141 -58.35957031 88.11238281 -59.47851562 87.49414062 C-82.92271435 74.38510218 -82.92271435 74.38510218 -87.35624695 62.31211853 C-88.47156438 58.30631834 -88.36773472 54.38106903 -88.29296875 50.25 C-88.28872391 49.35128174 -88.28447906 48.45256348 -88.28010559 47.52661133 C-88.26344584 44.68408988 -88.22581832 41.84230355 -88.1875 39 C-88.17243671 37.06120823 -88.15875119 35.12240523 -88.14648438 33.18359375 C-88.1135841 28.45545021 -88.06189115 23.72784931 -88 19 C-84.33274211 20.99891744 -80.66621429 22.99916918 -77 25 C-76.19143555 25.44085937 -75.38287109 25.88171875 -74.54980469 26.3359375 C-57.23753143 35.79405634 -57.23753143 35.79405634 -50 41 C-49.70609375 39.96552734 -49.70609375 39.96552734 -49.40625 38.91015625 C-49.1071875 37.97042969 -48.808125 37.03070313 -48.5 36.0625 C-48.2215625 35.14597656 -47.943125 34.22945312 -47.65625 33.28515625 C-42.4826118 23.02329369 -33.73344345 17.99733083 -24 12.75 C-22.14120571 11.7265971 -20.28516187 10.69832683 -18.42919922 9.6697998 C-16.67156942 8.69763312 -14.91005121 7.73250698 -13.1484375 6.76757812 C-10.45703963 5.25658862 -7.84669571 3.6819162 -5.25 2.015625 C-2 0 -2 0 0 0 Z M-21.8125 23.625 C-22.71548828 24.14707031 -23.61847656 24.66914063 -24.54882812 25.20703125 C-30.92702601 29.00301971 -36.14348664 32.34754052 -38.3046875 39.8125 C-39.19851871 44.20839119 -39.22569496 48.53069303 -39.125 53 C-39.11597656 53.77472656 -39.10695312 54.54945312 -39.09765625 55.34765625 C-39.07439388 57.23190843 -39.0385364 59.11599832 -39 61 C-21.57439551 53.45568383 -21.57439551 53.45568383 -10.1875 39.1875 C-8.02656729 32.35616433 -9.28661032 25.00497095 -10 18 C-14.2329157 18 -18.26332412 21.50900085 -21.8125 23.625 Z M-78 37 C-78.11760715 40.16634636 -78.18771024 43.33212074 -78.25 46.5 C-78.28351563 47.386875 -78.31703125 48.27375 -78.3515625 49.1875 C-78.44201548 55.33830268 -77.6524749 59.94850699 -74 65 C-69.63537252 69.3078621 -64.53782058 72.25136888 -59.25 75.3125 C-58.48300781 75.76689453 -57.71601562 76.22128906 -56.92578125 76.68945312 C-53.19783355 79.12063822 -53.19783355 79.12063822 -49 80 C-48.91850408 76.97861433 -48.85926579 73.95946095 -48.8125 70.9375 C-48.78736328 70.08994141 -48.76222656 69.24238281 -48.73632812 68.36914062 C-48.65680242 61.50342168 -49.98106392 57.37873365 -53.51953125 51.45703125 C-57.37038336 47.64256514 -61.96315602 45.28825926 -66.6875 42.6875 C-67.66267578 42.13771484 -68.63785156 41.58792969 -69.64257812 41.02148438 C-73.61011453 38.35536493 -73.61011453 38.35536493 -78 37 Z " transform="translate(88,0)"/>
</svg>